PathFileType  4	(X/Y/Z) C:\Users\antoi\Documents\MyRepositories\mobilecap\ResultsAnalysis
DataRate	CameraRate	NumFrames	NumMarkers	Units	OrigDataRate	OrigDataStartFrame	OrigNumFrames
100.0	100.0	4	51	mm	100.0	884	1413
Frame#	Time	r_knee			r_shank_antsup			r_ankle			r_calc			r_5meta			r_toe			L_knee			L_shank_antsup			L_ankle			L_calc			L_5meta			L_toe			r_sh2			r_sh3			r_sh4			L_sh2			L_sh3			r_thigh1			r_thigh2			r_thigh3			r_thigh4			r_thigh5			L_thigh1			L_thigh2			L_thigh3			L_thigh4			r.ASIS			r.PSIS			L.ASIS			L.PSIS			C7			R_Shoulder			L_Shoulder			R_Sternum			L_Sternum			R_humerus			R_elbow_med			R_elbow_lat			R_forearm			R_wrist_radius			R_wrist_ulna			L_humerus			L_elbow_med			L_elbow_lat			L_forearm			L_wrist_radius			L_wrist_ulna			R_HJC			L_HJC			R_HJC_reg			L_HJC_reg			
		X1	Y1	Z1	X2	Y2	Z2	X3	Y3	Z3	X4	Y4	Z4	X5	Y5	Z5	X6	Y6	Z6	X7	Y7	Z7	X8	Y8	Z8	X9	Y9	Z9	X10	Y10	Z10	X11	Y11	Z11	X12	Y12	Z12	X13	Y13	Z13	X14	Y14	Z14	X15	Y15	Z15	X16	Y16	Z16	X17	Y17	Z17	X18	Y18	Z18	X19	Y19	Z19	X20	Y20	Z20	X21	Y21	Z21	X22	Y22	Z22	X23	Y23	Z23	X24	Y24	Z24	X25	Y25	Z25	X26	Y26	Z26	X27	Y27	Z27	X28	Y28	Z28	X29	Y29	Z29	X30	Y30	Z30	X31	Y31	Z31	X32	Y32	Z32	X33	Y33	Z33	X34	Y34	Z34	X35	Y35	Z35	X36	Y36	Z36	X37	Y37	Z37	X38	Y38	Z38	X39	Y39	Z39	X40	Y40	Z40	X41	Y41	Z41	X42	Y42	Z42	X43	Y43	Z43	X44	Y44	Z44	X45	Y45	Z45	X46	Y46	Z46	X47	Y47	Z47	X48	Y48	Z48	X49	Y49	Z49	X50	Y50	Z50	X51	Y51	Z51	

884	8.83000000	-195.52330	476.84012	-451.43799	-134.15899	415.48146	-453.32945	-262.07298	98.86205	-446.70278	-330.14639	62.78670	-485.07040	-163.25005	46.48016	-404.19132	-112.91129	74.46816	-454.84286	-195.87984	469.79891	-951.80313	-144.54707	390.17945	-966.38889	-262.80094	99.41499	-941.48135	-329.01301	62.96581	-896.87525	-161.08725	43.33953	-990.46061	-116.26444	66.75431	-939.12873	-179.31439	310.44075	-429.63787	-209.47560	442.06300	-434.50023	-248.68924	337.15737	-427.64232	-231.44111	413.89942	-960.42650	-254.93809	293.50385	-968.61543	-497.37851	556.56027	-511.35238	-388.24734	548.09735	-487.24255	-377.69327	489.69459	-453.14781	-512.20149	446.41269	-492.46404	-396.72065	437.69678	-468.72638	-462.38911	517.17337	-942.92691	-325.34132	520.59741	-949.61000	-459.82332	405.61390	-907.51717	-320.64539	414.97410	-928.87898	-501.78799	582.92271	-588.67146	-690.86824	585.32430	-665.28606	-500.15432	574.17450	-836.40899	-698.88133	587.84208	-759.57671	-623.65130	1016.58449	-723.76839	-542.41665	996.97784	-551.85784	-547.68138	990.53668	-891.73284	-480.49860	970.00447	-699.98772	-475.87457	964.78110	-733.13068	-541.77819	878.90687	-465.77550	-564.63409	658.20736	-466.87079	-547.90021	691.65016	-396.26038	-415.79885	713.77814	-440.06192	-299.49918	729.20335	-490.63021	-288.20549	696.05712	-484.51543	-528.38529	893.56309	-968.50790	-513.08674	653.46581	-973.96917	-503.39303	701.30218	-1042.15966	-407.18409	735.11877	-1002.19824	-267.73279	757.77602	-948.48388	-258.53925	726.96373	-960.24697	-560.23649	490.21135	-609.06179	-562.88545	488.08467	-815.50458	-549.86883	490.92177	-621.26594	-563.71779	495.27361	-784.23273	
885	8.84000000	-195.86628	477.10660	-451.35597	-134.75708	415.61275	-453.51325	-262.06825	98.89725	-446.66878	-330.16695	62.77992	-485.05191	-163.29779	46.79804	-403.96878	-112.92042	74.54564	-454.89378	-195.83516	469.78640	-951.40401	-144.51198	390.22197	-966.11471	-262.80837	99.44072	-941.45641	-329.01664	62.91015	-896.76923	-161.10971	43.23041	-990.19854	-116.29939	66.82703	-939.13382	-179.63154	310.67556	-429.76411	-209.94487	442.10745	-434.69889	-248.64495	336.03108	-427.80304	-231.39180	413.96575	-960.20117	-254.94979	293.52398	-968.43087	-497.68177	556.76489	-511.36001	-388.59416	548.23300	-487.28706	-377.90504	489.85579	-453.10411	-512.42530	446.56920	-492.38109	-397.02642	437.82784	-468.58014	-462.61816	517.33645	-943.61253	-325.22958	520.40571	-949.00598	-459.79537	405.59362	-907.35845	-320.55417	414.93652	-928.62435	-501.55338	583.02761	-588.43804	-690.35741	585.92975	-665.51068	-499.55844	574.01683	-836.29312	-698.23016	588.55834	-759.71772	-619.66572	1016.65521	-723.71429	-538.77706	996.83079	-551.66999	-543.74999	990.29496	-891.51317	-476.75384	969.51112	-699.74814	-472.10003	964.10461	-732.82203	-539.05670	878.78577	-465.53068	-563.02459	658.23769	-466.55822	-546.34179	691.69841	-395.79858	-414.09956	713.22157	-439.50331	-297.69053	728.21556	-490.04997	-286.49885	695.03740	-483.76140	-525.20519	893.16797	-968.40336	-510.81054	653.12748	-973.57969	-501.35635	700.66347	-1041.84601	-405.11761	734.23849	-1001.81364	-265.67012	756.62916	-948.02851	-256.50338	725.85168	-959.85414	-560.24443	490.47581	-608.92994	-562.55360	488.19535	-815.37538	-549.73402	490.87155	-621.20706	-563.36125	495.42131	-784.27301	
886	8.85000000	-196.18015	477.29748	-451.46887	-135.34331	415.79892	-453.73157	-262.12600	98.96629	-446.64597	-330.18866	62.80852	-485.06552	-163.41539	47.34933	-403.46600	-113.00880	74.75668	-454.86268	-195.80079	469.81875	-951.16298	-144.50891	390.24081	-965.64410	-262.82234	99.47629	-941.42051	-329.01944	62.92760	-896.77778	-161.11706	43.34478	-990.22312	-116.32012	66.87371	-939.11665	-179.89920	310.80220	-430.01330	-210.51347	442.10939	-435.02950	-248.34700	334.03045	-427.84501	-231.33390	414.01036	-959.82951	-254.98974	293.43929	-967.98815	-497.93053	556.96367	-511.43623	-388.87970	548.32231	-487.38604	-378.20107	489.98590	-453.19171	-512.58628	446.72048	-492.33363	-397.27169	437.97970	-468.52975	-461.96523	516.82390	-942.40912	-325.11049	520.18859	-948.42497	-459.74075	405.63909	-907.25704	-320.47646	414.86882	-928.21314	-500.91859	582.98651	-588.28748	-689.71343	586.56635	-665.71797	-498.94169	573.92282	-836.28623	-697.56395	589.26341	-759.86605	-615.31436	1016.69612	-723.47755	-534.85439	996.74334	-551.51989	-539.48774	990.09005	-891.26238	-472.75836	968.90814	-699.47817	-468.05421	963.41590	-732.50539	-536.09208	878.66050	-465.17638	-561.40387	658.31340	-466.50056	-544.69680	691.69004	-395.35645	-412.23828	712.54023	-438.84731	-295.76370	727.11707	-489.22354	-284.66700	693.88891	-482.87360	-521.76399	892.77741	-968.25757	-508.85180	652.49056	-973.27833	-499.22728	700.03732	-1041.57376	-402.89940	733.28278	-1001.23476	-263.42251	755.36804	-947.56640	-254.33831	724.57928	-959.38804	-560.03333	490.64909	-608.94111	-562.20140	488.35143	-815.38770	-549.40729	490.88306	-621.12639	-563.01258	495.55637	-784.28738	
887	8.86000000	-196.47303	477.44408	-451.71852	-135.78746	416.01309	-453.88139	-262.30622	99.11452	-446.57004	-330.24861	62.79263	-485.07821	-163.49726	47.72454	-403.18253	-113.17616	75.08927	-454.73536	-195.74676	469.81996	-950.82002	-144.46416	390.28867	-965.13860	-262.83501	99.51644	-941.36816	-329.03595	62.88242	-896.69257	-161.11908	43.78387	-990.70208	-116.33828	66.90628	-939.08581	-180.27367	310.91225	-430.16376	-211.15381	442.19435	-435.39402	-248.88794	334.39612	-427.82503	-231.25868	414.04044	-959.42377	-254.97628	293.37701	-967.54802	-498.07854	557.24417	-511.58011	-389.00276	548.52967	-487.42376	-378.51668	490.12635	-453.30603	-512.83353	446.93714	-492.26623	-397.43452	438.19296	-468.54200	-461.19001	516.34722	-941.01818	-324.96297	520.05639	-948.12125	-459.67516	405.73793	-907.23849	-320.40956	414.77707	-927.66671	-500.03268	582.88027	-588.34104	-688.96339	587.23200	-665.93064	-498.32344	573.92791	-836.65637	-696.79089	589.98787	-759.98155	-610.68406	1016.84159	-723.18368	-530.55758	996.62744	-551.36219	-534.85696	989.84626	-890.88317	-468.37396	968.22430	-699.15340	-463.71154	962.68135	-732.15666	-532.82394	878.49582	-464.78201	-559.58313	658.35436	-466.15966	-542.85685	691.50214	-395.07593	-410.24430	711.74659	-438.19452	-293.58969	725.84051	-488.33252	-282.68853	692.61424	-481.93791	-517.95955	892.34137	-967.95225	-506.98642	651.63408	-972.88765	-496.95307	699.45168	-1041.25786	-400.50466	732.31120	-1000.63710	-261.01855	753.95134	-947.00414	-252.05756	723.15372	-958.84166	-559.58089	490.78107	-609.19144	-561.86179	488.58971	-815.63769	-549.00149	490.90004	-621.27029	-562.59720	495.68693	-784.63401	
